<?xml version="1.0" standalone="no"?>
<!DOCTYPE svg PUBLIC "-//W3C//DTD SVG 20010904//EN"
 "http://www.w3.org/TR/2001/REC-SVG-20010904/DTD/svg10.dtd">
<svg width="50" height="50" version="1.0" xmlns="http://www.w3.org/2000/svg" viewBox="0 0 512.000000 512.000000"
 preserveAspectRatio="xMidYMid meet">

<g transform="translate(0.000000,512.000000) scale(0.100000,-0.100000)"
fill="#000000" stroke="none">
<path d="M4140 4461 c-5 -11 -10 -75 -10 -143 0 -96 4 -129 16 -146 19 -27 48
-28 74 -2 18 18 20 33 20 143 0 95 -4 128 -16 145 -20 28 -69 30 -84 3z"/>
<path d="M4498 4448 c-8 -7 -50 -75 -92 -152 -58 -103 -76 -145 -72 -162 7
-27 50 -42 75 -27 20 12 171 279 171 303 0 20 -30 50 -51 50 -9 0 -22 -6 -31
-12z"/>
<path d="M2920 4371 c-101 -33 -190 -138 -190 -225 0 -14 -27 -16 -269 -16
l-269 0 -30 53 c-17 30 -51 72 -77 95 -165 145 -416 88 -468 -105 l-11 -43
-243 0 -243 0 -19 38 c-28 54 -94 117 -155 147 -100 49 -206 43 -293 -16 -46
-32 -103 -118 -103 -156 0 -17 -12 -29 -49 -47 -52 -27 -117 -94 -157 -162
-51 -88 -57 -150 -50 -599 18 -1141 41 -1995 57 -2095 20 -130 84 -225 179
-270 46 -21 50 -26 60 -73 13 -62 38 -104 90 -151 117 -105 242 -123 635 -91
947 78 2051 85 3034 20 239 -16 274 -11 287 39 14 56 -15 73 -137 83 l-78 6
40 45 c65 74 72 114 59 358 -5 115 -10 529 -10 919 0 713 -7 962 -35 1240 -35
341 -57 428 -141 556 -71 108 -165 178 -237 179 -15 0 -42 8 -60 18 -28 15
-71 17 -378 20 l-346 3 -21 45 c-54 111 -162 184 -280 190 -37 2 -78 0 -92 -5z
m176 -124 c33 -17 104 -90 104 -107 0 -6 -67 -10 -180 -10 l-180 0 0 25 c0 15
15 41 36 65 53 59 139 70 220 27z m-1133 -13 c36 -18 84 -60 98 -86 9 -17 -2
-18 -170 -18 -168 0 -180 1 -174 18 35 96 147 136 246 86z m-1047 -23 c28 -16
58 -41 68 -55 l16 -26 -176 0 -176 0 19 32 c48 83 153 103 249 49z m1198 -197
c3 -9 6 -44 6 -80 0 -62 -1 -64 -32 -78 -42 -18 -101 -74 -123 -115 -20 -40
-21 -126 -2 -172 38 -92 121 -144 220 -137 217 13 286 302 97 406 -50 27 -50
27 -50 78 0 28 -3 66 -6 83 l-6 31 509 0 510 0 6 -44 c8 -58 -2 -116 -20 -116
-8 0 -34 -12 -58 -26 -111 -65 -151 -170 -104 -274 41 -91 112 -140 204 -140
69 0 120 25 168 80 87 102 66 248 -47 322 -35 23 -35 23 -38 110 l-3 88 312 0
c196 0 322 -4 340 -11 35 -13 70 -46 89 -81 16 -31 31 -222 42 -545 l7 -203
-25 -4 c-78 -15 -1047 -28 -1740 -23 -753 5 -959 11 -1547 42 -154 8 -296 15
-315 15 l-34 0 -11 327 c-5 182 -6 341 -2 358 10 36 62 89 102 104 17 7 120
11 256 11 l229 0 6 -31 c3 -17 6 -50 6 -73 0 -40 -2 -42 -61 -76 -81 -46 -112
-92 -117 -174 -3 -52 0 -69 25 -116 18 -34 45 -66 72 -85 39 -27 50 -30 120
-30 68 0 83 3 119 28 23 15 54 46 69 69 24 36 28 51 28 118 0 67 -3 82 -28
118 -15 24 -48 54 -75 69 l-47 26 -2 78 -2 79 392 3 c216 1 429 3 473 5 67 2
83 -1 88 -14z m2134 -151 c68 -106 87 -183 116 -453 35 -325 39 -471 41 -1250
1 -432 5 -875 9 -985 l8 -200 -24 -35 c-13 -19 -39 -45 -58 -58 -34 -23 -40
-24 -170 -18 -74 3 -432 9 -795 12 -764 7 -1366 -8 -2257 -57 -224 -12 -249
-8 -298 47 -56 64 -58 63 200 83 638 49 1982 75 2605 50 451 -17 453 -17 510
9 63 29 101 65 129 122 34 67 37 97 26 274 -11 198 -27 704 -40 1351 -12 552
-27 999 -39 1093 -4 34 -4 62 0 62 4 0 21 -21 37 -47z m-3043 -163 c8 -16 15
-38 15 -50 0 -55 -65 -120 -120 -120 -54 0 -120 69 -120 125 0 22 28 75 40 75
12 0 13 -16 1 -56 -10 -35 0 -58 30 -75 35 -18 63 10 78 78 7 32 15 61 18 66
8 13 42 -13 58 -43z m1037 39 c27 -15 50 -73 42 -107 -15 -58 -64 -102 -114
-102 -53 0 -120 65 -120 117 0 27 20 73 32 73 4 0 5 -18 2 -40 -8 -48 7 -70
46 -70 34 0 45 13 60 70 20 79 18 77 52 59z m963 -39 c-12 -55 32 -93 74 -63
12 8 26 34 32 59 6 24 15 44 19 44 5 0 18 -12 29 -26 52 -66 2 -169 -86 -181
-40 -5 -46 -3 -83 35 -34 34 -40 46 -40 83 0 30 6 49 21 66 27 28 42 20 34
-17z m-2435 -600 c801 -42 1722 -57 2525 -41 341 7 670 15 731 18 l112 6 6
-339 c12 -581 26 -1060 37 -1280 7 -117 9 -228 5 -248 -9 -47 -57 -102 -103
-117 -27 -9 -101 -8 -322 2 -655 29 -1882 7 -2895 -51 -113 -7 -181 -7 -206 0
-53 14 -107 76 -114 132 -5 36 -66 1807 -66 1906 l0 34 48 -6 c26 -3 135 -10
242 -16z"/>
<path d="M2018 2473 c-164 -164 -298 -305 -298 -315 0 -25 28 -48 58 -48 21 0
74 48 264 237 l238 237 0 -547 c0 -359 4 -555 10 -568 10 -19 5 -19 -239 -19
-214 0 -252 -2 -265 -16 -19 -18 -21 -55 -4 -72 17 -17 1099 -17 1116 0 7 7
12 24 12 38 0 49 -6 50 -289 50 -206 0 -262 3 -253 12 9 9 12 166 12 644 0
562 -2 634 -16 648 -8 9 -23 16 -32 16 -9 0 -150 -134 -314 -297z"/>
<path d="M4630 4039 c-140 -56 -150 -63 -150 -94 0 -23 28 -55 48 -55 18 0
274 99 289 112 32 26 3 89 -40 87 -12 -1 -78 -23 -147 -50z"/>
</g>
</svg>
