<?xml version="1.0" standalone="no"?>
<!DOCTYPE svg PUBLIC "-//W3C//DTD SVG 20010904//EN"
 "http://www.w3.org/TR/2001/REC-SVG-20010904/DTD/svg10.dtd">
<svg version="1.0" xmlns="http://www.w3.org/2000/svg"
 width="50" height="50" viewBox="0 0 64.000000 64.000000"
 preserveAspectRatio="xMidYMid meet">

<g transform="translate(0.000000,64.000000) scale(0.100000,-0.100000)"
fill="#000000" stroke="none">
<path d="M47 592 c-24 -27 -23 -123 1 -145 28 -26 202 -24 225 1 24 27 23 123
-1 145 -28 26 -202 24 -225 -1z m205 -19 c23 -20 24 -80 1 -105 -22 -25 -157
-26 -185 -1 -23 20 -24 80 -1 105 22 25 157 26 185 1z"/>
<path d="M367 592 c-14 -16 -17 -43 -17 -165 0 -187 0 -187 130 -187 130 0
130 0 130 188 0 186 3 182 -132 182 -79 0 -98 -3 -111 -18z m205 -19 c16 -14
18 -33 18 -140 0 -68 -5 -133 -10 -144 -9 -17 -22 -19 -100 -19 -78 0 -91 2
-100 19 -5 11 -10 75 -10 142 0 155 3 159 108 159 56 0 80 -4 94 -17z"/>
<path d="M52 384 c-21 -14 -22 -21 -22 -168 0 -191 -3 -186 132 -186 131 0
128 -4 128 183 0 187 0 187 -128 187 -63 0 -94 -4 -110 -16z m208 -33 c5 -11
10 -75 10 -142 0 -155 -3 -159 -108 -159 -110 0 -112 3 -112 157 0 68 5 133
10 144 9 17 22 19 100 19 78 0 91 -2 100 -19z"/>
<path d="M367 192 c-24 -27 -23 -123 1 -145 28 -26 202 -24 225 1 24 27 23
123 -1 145 -28 26 -202 24 -225 -1z m205 -19 c23 -20 24 -80 1 -105 -22 -25
-157 -26 -185 -1 -23 20 -24 80 -1 105 22 25 157 26 185 1z"/>
</g>
</svg>
