<svg width="32" height="33" viewBox="0 0 32 33" fill="none" xmlns="http://www.w3.org/2000/svg">
<circle cx="16" cy="16.5" r="15.5" fill="white" stroke="#D9D9D9"/>
<path d="M16 19C17.3807 19 18.5 17.8807 18.5 16.5C18.5 15.1193 17.3807 14 16 14C14.6193 14 13.5 15.1193 13.5 16.5C13.5 17.8807 14.6193 19 16 19Z" stroke="#8C8C8C" stroke-width="1.5" stroke-linecap="round" stroke-linejoin="round"/>
<path d="M22.8755 15.8754L23.6807 14.6676C23.7332 14.5898 23.7679 14.5014 23.7823 14.4086C23.7968 14.3159 23.7907 14.2211 23.7644 14.131C23.6124 13.6308 23.4122 13.1465 23.1666 12.6851C23.1215 12.6029 23.059 12.5317 22.9833 12.4766C22.9076 12.4214 22.8206 12.3836 22.7286 12.366L21.3038 12.081L20.4199 11.1971L20.1349 9.7722C20.1173 9.68021 20.0795 9.59326 20.0243 9.51756C19.9691 9.44186 19.8979 9.37927 19.8158 9.33426C19.3543 9.08862 18.87 8.88844 18.3698 8.73654C18.2797 8.71025 18.1849 8.70411 18.0922 8.71857C17.9994 8.73302 17.911 8.76772 17.8332 8.82019L16.6255 9.62537H15.3755L14.1677 8.82019C14.0899 8.76772 14.0015 8.73303 13.9087 8.71857C13.816 8.70411 13.7212 8.71025 13.6311 8.73654C13.1309 8.88843 12.6466 9.08862 12.1851 9.33426C12.103 9.37926 12.0318 9.44186 11.9766 9.51756C11.9214 9.59327 11.8837 9.68023 11.866 9.77222L11.5811 11.197L10.6971 12.081L9.27229 12.3659C9.1803 12.3836 9.09335 12.4213 9.01765 12.4765C8.94194 12.5317 8.87935 12.6029 8.83435 12.685C8.58866 13.1465 8.38845 13.6308 8.23654 14.131C8.21024 14.2211 8.20411 14.3159 8.21857 14.4086C8.23303 14.5014 8.26773 14.5898 8.3202 14.6676L9.12538 15.8754V17.1254L8.3202 18.3331C8.26773 18.4109 8.23303 18.4994 8.21858 18.5921C8.20412 18.6848 8.21025 18.7796 8.23655 18.8697C8.38842 19.3699 8.5886 19.8542 8.83426 20.3157C8.87927 20.3979 8.94186 20.4691 9.01756 20.5242C9.09326 20.5794 9.18021 20.6172 9.2722 20.6349L10.6971 20.9198L11.581 21.8037L11.8659 23.2286C11.8836 23.3206 11.9213 23.4075 11.9765 23.4833C12.0317 23.559 12.1029 23.6216 12.185 23.6666C12.6465 23.9122 13.1308 24.1124 13.631 24.2643C13.7211 24.2906 13.8159 24.2967 13.9086 24.2823C14.0013 24.2678 14.0897 24.2331 14.1675 24.1806L15.3754 23.3754H16.6254L17.8332 24.1807C17.911 24.2332 17.9994 24.2679 18.0922 24.2823C18.1849 24.2968 18.2797 24.2906 18.3698 24.2643C18.87 24.1125 19.3543 23.9123 19.8157 23.6666C19.8979 23.6216 19.9691 23.559 20.0242 23.4833C20.0794 23.4076 20.1172 23.3207 20.1349 23.2287L20.4199 21.8038L21.3037 20.9198L22.7286 20.6349C22.8206 20.6172 22.9075 20.5795 22.9833 20.5243C23.059 20.4691 23.1215 20.3979 23.1666 20.3158C23.4122 19.8543 23.6124 19.3701 23.7644 18.8698C23.7907 18.7798 23.7968 18.685 23.7823 18.5922C23.7679 18.4995 23.7332 18.4111 23.6807 18.3333L22.8755 17.1254V15.8754Z" stroke="#8C8C8C" stroke-width="1.5" stroke-linecap="round" stroke-linejoin="round"/>
</svg>
