<?xml version="1.0" standalone="no"?>
<!DOCTYPE svg PUBLIC "-//W3C//DTD SVG 20010904//EN"
 "http://www.w3.org/TR/2001/REC-SVG-20010904/DTD/svg10.dtd">
<svg version="1.0" xmlns="http://www.w3.org/2000/svg"
  width="50" height="50" viewBox="0 0 512.000000 512.000000"
 preserveAspectRatio="xMidYMid meet">

<g transform="translate(0.000000,512.000000) scale(0.100000,-0.100000)"
fill="#000000" stroke="none">
<path d="M4089 4860 c-31 -21 -121 -106 -200 -189 l-145 -150 -42 11 c-84 21
-152 -26 -187 -130 -12 -34 -14 -35 -67 -37 -104 -3 -178 -66 -178 -151 0 -39
-3 -44 -22 -44 -29 0 -91 -38 -117 -71 -17 -22 -18 -29 -7 -45 7 -10 16 -51
19 -90 l6 -71 -39 -12 c-21 -6 -64 -31 -97 -54 -151 -112 -1346 -1281 -1856
-1815 l-260 -273 -107 -197 c-207 -383 -449 -786 -634 -1052 -44 -63 -98 -141
-120 -173 -33 -47 -38 -61 -29 -75 24 -38 300 -6 598 69 182 46 310 87 786
255 240 84 448 156 462 159 15 4 139 127 318 318 162 171 650 669 1085 1106
l791 796 64 -23 c74 -26 116 -28 164 -8 39 17 75 68 75 109 0 26 2 27 47 27
96 0 171 73 182 178 6 55 7 56 48 69 95 32 153 151 124 253 -7 22 7 40 111
152 234 250 249 268 243 299 -4 15 -1 36 6 47 16 26 -17 135 -68 221 -126 214
-574 556 -808 616 -79 20 -82 20 -146 -25z m166 -45 c237 -89 501 -300 666
-532 50 -70 119 -191 119 -207 0 -3 -36 8 -79 24 -318 117 -598 369 -756 680
-36 71 -39 69 50 35z m-75 -101 c150 -322 442 -580 783 -693 l68 -23 -45 -51
c-25 -29 -94 -109 -153 -179 -60 -70 -111 -127 -115 -127 -4 -1 -15 14 -24 32
-18 34 -542 562 -654 659 -36 31 -102 80 -147 111 l-82 55 162 150 c89 83 163
151 164 152 1 0 20 -39 43 -86z m-392 -308 c92 -33 162 -92 485 -414 180 -180
336 -342 348 -360 37 -58 20 -158 -39 -231 l-19 -24 -33 62 c-47 87 -137 189
-281 315 -68 60 -200 184 -294 276 -198 194 -261 247 -351 291 -63 31 -64 32
-47 52 41 46 150 61 231 33z m-189 -178 c50 -36 485 -433 640 -583 181 -176
210 -217 211 -287 0 -73 -80 -228 -118 -228 -10 0 -31 22 -50 55 -52 86 -134
185 -323 385 -96 102 -224 244 -286 315 -114 133 -208 219 -276 251 -20 10
-37 21 -37 25 0 13 81 72 117 84 39 13 91 6 122 -17z m-222 -193 c92 -46 215
-162 380 -358 70 -84 168 -197 218 -252 188 -207 263 -351 209 -396 -27 -22
-99 -13 -171 21 -69 32 -184 119 -229 174 -15 17 -113 123 -220 236 -106 113
-218 237 -249 275 -106 133 -165 296 -117 324 37 22 107 12 179 -24z m-193
-203 c3 -10 50 -74 105 -142 l98 -125 -27 -16 c-45 -28 -1393 -1378 -1615
-1619 -114 -124 -234 -252 -266 -285 -32 -33 -97 -104 -146 -159 l-88 -98 -8
33 c-22 90 -28 108 -50 140 -28 42 -105 95 -160 111 -23 6 -45 14 -49 18 -4 3
249 267 564 585 314 319 698 713 854 875 284 297 398 407 554 536 89 74 210
163 222 164 4 0 9 -8 12 -18z m389 -479 l127 -142 -246 -213 c-217 -188 -249
-213 -277 -211 -18 1 -133 2 -256 3 l-225 1 104 104 105 105 183 0 c158 0 183
2 189 16 11 29 -20 35 -170 32 -81 -2 -147 -1 -147 2 0 3 35 40 78 81 l77 76
80 -8 c44 -4 135 -8 203 -8 112 -1 123 1 120 17 -4 22 -62 30 -225 31 -67 1
-124 5 -127 9 -3 5 21 34 53 66 l58 57 76 -15 c42 -9 97 -16 122 -16 39 0 46
3 43 17 -2 10 -10 19 -18 20 -8 1 -55 7 -104 14 l-88 11 58 59 c46 46 61 56
70 46 6 -6 68 -76 137 -154z m307 -297 c30 -23 70 -51 88 -61 18 -11 31 -23
30 -26 -2 -4 -64 -63 -138 -130 -396 -358 -1210 -1162 -1670 -1649 -117 -124
-236 -249 -265 -279 l-53 -54 -17 32 c-22 43 -90 108 -140 133 -23 13 -68 23
-107 26 -38 3 -67 7 -67 11 3 11 903 882 1324 1281 154 146 417 390 584 542
l304 278 36 -30 c20 -17 61 -50 91 -74z m-730 -320 c0 -1 -96 -90 -212 -197
-448 -408 -1025 -986 -1349 -1352 l-114 -128 -6 50 c-14 106 -86 185 -180 197
l-50 7 21 22 c20 21 26 22 175 17 139 -4 155 -3 155 12 0 14 -15 16 -112 16
-177 0 -175 -3 -72 101 l89 89 162 0 c138 0 163 2 163 15 0 13 -22 15 -140 15
-77 0 -140 3 -140 7 0 4 35 43 77 85 l78 78 172 0 c166 0 173 1 173 20 0 19
-7 20 -152 20 l-153 0 68 68 67 67 157 0 c114 0 157 3 160 12 3 9 -32 13 -144
15 l-148 3 84 88 85 87 118 0 c98 0 118 3 118 15 0 12 -18 15 -102 15 l-103 0
62 62 61 61 219 6 c184 5 218 8 218 21 0 27 -202 35 -360 14 l-40 -6 110 111
c60 61 112 106 115 100 9 -13 249 -8 253 6 1 6 -46 11 -122 13 l-123 3 78 83
79 84 253 1 c138 1 252 -1 252 -3z m-2114 -1139 c66 -35 108 -94 120 -165 6
-41 -11 -137 -28 -159 -7 -9 -5 -21 6 -38 19 -29 29 -31 50 -10 21 21 94 19
133 -5 67 -40 87 -109 57 -196 -17 -49 -17 -55 -2 -70 14 -14 19 -14 44 -1 16
8 56 20 88 26 123 23 227 -30 284 -145 l21 -41 -387 -118 c-345 -106 -481
-152 -659 -224 l-53 -21 -6 28 c-30 138 -108 248 -214 302 -39 20 -41 22 -27
43 135 207 349 605 432 803 l13 32 50 -13 c27 -7 63 -20 78 -28z m-576 -957
c94 -15 97 -17 125 -63 20 -35 60 -166 52 -173 -1 -1 -56 -19 -122 -40 -101
-32 -135 -37 -215 -38 -114 -1 -150 7 -150 34 0 10 3 21 7 23 5 3 59 0 122 -5
93 -8 115 -8 122 3 13 22 -3 29 -77 35 -38 3 -79 7 -92 10 l-22 4 27 35 28 35
128 0 c106 0 129 3 134 15 3 9 3 18 0 21 -2 3 -55 5 -116 5 -61 0 -111 2 -111
4 0 2 14 26 31 54 35 56 35 56 129 41z"/>
</g>
</svg>
